HIERARCHY
ROOT Hips
{
	OFFSET 0.000000 0.000000 0.000000
	CHANNELS 6 Xposition Yposition Zposition Xrotation Yrotation Zrotation
	JOINT LeftUpLeg_virtual
	{
		OFFSET 0.000000 0.000000 0.000000
		CHANNELS 3 Xrotation Yrotation Zrotation
		JOINT LeftUpLeg
		{
			OFFSET 15.427100 -6.655098 0.678600
			CHANNELS 3 Xrotation Yrotation Zrotation
			JOINT LeftLeg
			{
				OFFSET 4.081073 -39.591068 13.024000
				CHANNELS 3 Xrotation Yrotation Zrotation
				JOINT LeftFoot
				{
					OFFSET -4.081074 -37.707932 -15.979700
					CHANNELS 3 Xrotation Yrotation Zrotation
					JOINT LeftToeBase
					{
						OFFSET 5.346399 -15.068900 20.645000
						CHANNELS 3 Xrotation Yrotation Zrotation
						JOINT LeftToe_End
						{
							OFFSET 2.754700 0.931300 11.300900
							CHANNELS 3 Xrotation Yrotation Zrotation
							End Site
							{
								OFFSET 0 0 0
							}
						}
					}
				}
			}
		}
	}
	JOINT RightUpLeg_virtual
	{
		OFFSET 0.000000 0.000000 0.000000
		CHANNELS 3 Xrotation Yrotation Zrotation
		JOINT RightUpLeg
		{
			OFFSET -15.569500 -6.655098 0.678600
			CHANNELS 3 Xrotation Yrotation Zrotation
			JOINT RightLeg
			{
				OFFSET -4.081825 -39.591045 13.023800
				CHANNELS 3 Xrotation Yrotation Zrotation
				JOINT RightFoot
				{
					OFFSET 4.081824 -37.707954 -15.979600
					CHANNELS 3 Xrotation Yrotation Zrotation
					JOINT RightToeBase
					{
						OFFSET -5.346400 -15.068900 20.645000
						CHANNELS 3 Xrotation Yrotation Zrotation
						JOINT RightToe_End
						{
							OFFSET -2.754700 0.931300 11.300900
							CHANNELS 3 Xrotation Yrotation Zrotation
							End Site
							{
								OFFSET 0 0 0
							}
						}
					}
				}
			}
		}
	}
	JOINT Spine_virtual
	{
		OFFSET 0.000000 0.000000 0.000000
		CHANNELS 3 Xrotation Yrotation Zrotation
		JOINT Spine
		{
			OFFSET -0.279200 12.230698 -2.892100
			CHANNELS 3 Xrotation Yrotation Zrotation
			JOINT Spine1
			{
				OFFSET -0.232667 10.192268 -1.242267
				CHANNELS 3 Xrotation Yrotation Zrotation
				JOINT Spine1_split
				{
					OFFSET -0.232667 10.192268 -1.242267
					CHANNELS 3 Xrotation Yrotation Zrotation
					JOINT Spine2
					{
						OFFSET -0.232667 10.192268 -1.242267
						CHANNELS 3 Xrotation Yrotation Zrotation
						JOINT Neck_virtual
						{
							OFFSET 0.000000 0.000000 0.000000
							CHANNELS 3 Xrotation Yrotation Zrotation
							JOINT Neck
							{
								OFFSET -0.418800 17.814194 8.416900
								CHANNELS 3 Xrotation Yrotation Zrotation
								JOINT Head
								{
									OFFSET 0.000000 7.031097 3.806800
									CHANNELS 3 Xrotation Yrotation Zrotation
									JOINT HeadTop_End
									{
										OFFSET 0.000000 24.646606 12.978600
										CHANNELS 3 Xrotation Yrotation Zrotation
										End Site
										{
											OFFSET 0 0 0
										}
									}
								}
							}
						}
						JOINT LeftShoulder_virtual
						{
							OFFSET 0.000000 0.000000 0.000000
							CHANNELS 3 Xrotation Yrotation Zrotation
							JOINT LeftShoulder
							{
								OFFSET 8.476499 7.247704 -3.868750
								CHANNELS 3 Xrotation Yrotation Zrotation
								JOINT LeftShoulder_split
								{
									OFFSET 8.476499 7.247704 -3.868750
									CHANNELS 3 Xrotation Yrotation Zrotation
									JOINT LeftArm
									{
										OFFSET 9.308998 -2.777710 0.208600
										CHANNELS 3 Xrotation Yrotation Zrotation
										JOINT LeftForeArm
										{
											OFFSET 29.972298 0.000000 0.000000
											CHANNELS 3 Xrotation Yrotation Zrotation
											JOINT LeftHand
											{
												OFFSET 26.026505 0.000000 0.000000
												CHANNELS 3 Xrotation Yrotation Zrotation
												End Site
												{
													OFFSET 0 0 0
												}
											}
										}
									}
								}
							}
						}
						JOINT RightShoulder_virtual
						{
							OFFSET 0.000000 0.000000 0.000000
							CHANNELS 3 Xrotation Yrotation Zrotation
							JOINT RightShoulder
							{
								OFFSET -7.570500 7.247704 -3.868750
								CHANNELS 3 Xrotation Yrotation Zrotation
								JOINT RightShoulder_split
								{
									OFFSET -7.570500 7.247704 -3.868750
									CHANNELS 3 Xrotation Yrotation Zrotation
									JOINT RightArm
									{
										OFFSET -9.308998 -2.777710 0.208500
										CHANNELS 3 Xrotation Yrotation Zrotation
										JOINT RightForeArm
										{
											OFFSET -29.972300 0.000000 0.000000
											CHANNELS 3 Xrotation Yrotation Zrotation
											JOINT RightHand
											{
												OFFSET -26.026505 0.000000 0.000000
												CHANNELS 3 Xrotation Yrotation Zrotation
												End Site
												{
													OFFSET 0 0 0
												}
											}
										}
									}
								}
							}
						}
					}
				}
			}
		}
	}
}
MOTION
Frames: 4
Frame Time: 0.03333333
-1.082202 233.339920 -28.835527 0.000000 0.000000 0.000000 -3.294155 2.695921 5.959671 -69.793660 29.256016 25.276351 80.336344 -8.704584 3.899544 7.277911 14.392071 -5.675665 2.111503 2.732348 -1.160873 0.000000 0.000000 0.000000 0.996256 2.027755 4.908271 -75.553838 10.829060 -24.750328 87.091701 11.461009 -1.174364 18.867844 -11.659202 30.051162 16.425002 -12.842526 -16.619394 0.000000 0.000000 0.000000 -2.744504 6.105609 2.378091 8.300422 0.056998 4.711291 17.469758 -2.759070 0.029622 0.112782 0.401990 0.017397 0.000000 0.000000 0.000000 22.764399 -1.062861 -0.188195 -11.628114 12.576274 -5.943290 -9.455711 -31.298174 -20.573617 0.000000 0.000000 0.000000 19.498479 -2.508798 -2.212032 8.401745 -25.324841 25.498312 6.988792 -0.318953 -2.388575 -67.605950 -25.584698 8.703351 0.486519 -50.699255 19.062816 0.000000 0.000000 0.000000 21.770495 -1.103015 0.215638 2.849661 15.465012 -20.151935 12.486997 5.531699 2.279118 -82.692602 36.643603 20.665600 -41.725643 40.652931 12.279102 0.000000 0.000000 0.000000 
0.019395 234.811630 -29.994616 0.000000 0.000000 0.000000 -4.594775 0.035199 5.095818 -75.273343 28.302801 28.340750 82.345437 -9.675941 4.829792 7.355993 11.544456 -6.907731 0.973413 2.539270 -0.305557 0.000000 0.000000 0.000000 -0.286101 0.631906 3.832976 -77.671955 8.582484 -20.526701 82.631492 12.106516 -0.177814 15.637853 -11.589093 26.981679 15.157933 -12.954682 -18.543866 0.000000 0.000000 0.000000 -3.651021 4.371687 2.266061 8.510779 0.380200 3.520284 20.223403 -2.857494 0.753728 0.135394 0.428375 -0.021300 0.000000 0.000000 0.000000 25.315246 -1.045932 0.028092 -11.915835 13.264408 -6.167654 -6.047146 -29.290696 -17.330014 0.000000 0.000000 0.000000 22.271768 -2.618370 -1.663674 9.836484 -24.914461 29.553303 8.798366 -1.276719 -2.554568 -71.157471 -20.479270 9.397779 -1.204822 -46.498900 20.750057 0.000000 0.000000 0.000000 24.388348 -1.079582 0.539540 4.776519 16.462411 -23.452056 13.578741 4.587934 2.565458 -95.170879 34.334114 27.035443 -42.287515 37.129547 10.526254 0.000000 0.000000 0.000000 
1.195925 236.263016 -30.797323 0.000000 0.000000 0.000000 -5.301439 -1.405041 4.449668 -78.248211 28.436868 29.169925 78.351122 -11.757769 5.592935 9.526998 7.159391 -9.285262 0.089675 2.189504 1.201825 0.000000 0.000000 0.000000 -1.085701 -0.430424 3.221002 -76.748759 5.323484 -16.558540 72.411111 12.574454 1.090860 12.893535 -9.635508 23.167705 14.618379 -12.763865 -20.046110 0.000000 0.000000 0.000000 -3.530197 3.127629 2.384578 7.241525 0.866497 2.552986 22.552873 -2.901262 1.476567 0.162850 0.340393 0.025357 0.000000 0.000000 0.000000 27.554267 -0.923541 0.467968 -11.651879 13.882819 -6.591979 -3.683083 -27.394337 -15.013884 0.000000 0.000000 0.000000 24.602854 -2.601044 -0.922851 10.565975 -23.649561 32.075542 9.373298 -1.738230 -3.136356 -75.048725 -17.621545 8.716225 -3.189512 -40.707063 21.364494 0.000000 0.000000 0.000000 26.508261 -1.020620 1.018409 6.597285 17.451058 -26.003242 15.390576 3.123448 2.828181 -104.129314 33.536560 28.965644 -42.086519 32.985702 9.322846 0.000000 0.000000 0.000000 
2.239382 237.346466 -31.062857 0.000000 0.000000 0.000000 -5.351265 -1.658263 4.204930 -78.497718 29.894024 27.992468 68.958778 -14.784851 5.548865 12.557004 2.027704 -11.509511 -0.954873 1.734816 3.098919 0.000000 0.000000 0.000000 -1.761413 -1.571422 3.327166 -74.820986 2.597309 -13.581856 58.011877 14.067770 2.491224 13.013090 -4.785363 20.574586 15.606911 -12.303933 -21.023905 0.000000 0.000000 0.000000 -2.780624 2.504831 2.699047 5.155970 1.423191 1.853269 24.340610 -2.963419 2.064574 0.141188 0.334485 -0.034345 0.000000 0.000000 0.000000 29.243687 -0.799360 0.994042 -10.987572 14.294075 -7.076408 -2.492441 -26.215690 -13.487290 0.000000 0.000000 0.000000 26.361066 -2.506990 -0.200374 10.663938 -21.470153 33.483599 9.808765 -1.854436 -2.818361 -78.466456 -17.230959 7.990847 -6.472176 -32.486770 19.967638 0.000000 0.000000 0.000000 27.925985 -1.052982 1.539660 8.319460 18.244204 -28.437549 17.374417 1.379092 3.126609 -108.708915 35.238281 26.929793 -41.373143 28.570688 8.578496 0.000000 0.000000 0.000000 
